<?xml version="1.0" encoding="utf-8"?>
<!-- Generator: Adobe Illustrator 25.0.0, SVG Export Plug-In . SVG Version: 6.00 Build 0)  -->
<svg version="1.1" id="Layer_1" xmlns="http://www.w3.org/2000/svg" xmlns:xlink="http://www.w3.org/1999/xlink" x="0px" y="0px"
	 viewBox="0 0 900 900" style="enable-background:new 0 0 900 900;" xml:space="preserve">
<style type="text/css">
	.st0{fill:url(#SVGID_1_);}
	.st1{fill-rule:evenodd;clip-rule:evenodd;fill:url(#SVGID_2_);}
	.st2{fill:url(#SVGID_3_);}
	.st3{fill:url(#SVGID_4_);}
</style>
<g>
	<linearGradient id="SVGID_1_" gradientUnits="userSpaceOnUse" x1="528.5259" y1="614.7465" x2="301.9607" y2="297.7899">
		<stop  offset="0" style="stop-color:#FEA68B"/>
		<stop  offset="1" style="stop-color:#F76C40"/>
	</linearGradient>
	<path class="st0" d="M737.9,534.5c0,147.3-119.4,266.7-266.7,266.7c-54.5,0-105.1-16.3-147.3-44.3c-49.6-32.9-87.5-82-106.3-139.7
		c4.4,9.7,9.8,18.5,16.8,26.1c8.3,8.8,19.6,15.2,33.4,18.9c25,35,58.8,63.3,98.1,81.7c15.1,7,31,12.6,47.6,16.5
		c12.7,3,25.8,5,39.2,6c6.1,0.5,12.3,0.7,18.5,0.7s12.4-0.2,18.5-0.7c19.9-1.5,39.2-5.2,57.5-11.1
		c100.7-32.2,173.6-126.5,173.6-237.8c0-133.5-104.9-242.6-236.8-249.3C625.4,274.9,737.9,391.6,737.9,534.5z"/>
	<linearGradient id="SVGID_2_" gradientUnits="userSpaceOnUse" x1="514.106" y1="625.0541" x2="287.5407" y2="308.0975">
		<stop  offset="0" style="stop-color:#FEA68B"/>
		<stop  offset="1" style="stop-color:#F76C40"/>
	</linearGradient>
	<path class="st1" d="M656,627.8c0.4-3.8,0.8-7.5,1.2-11.3c-1.2-6.5-8.5-11.1-6.6-19c2.5-4.1,4.9-8.3,7.4-12.4
		c4.3-18.3-37.6-15.4-43.9-30.7c-2.2-5.5,0.7-11-0.4-17.5c-1.4-8.3-3.5-17.1-6.6-24.1c-4.7-10.8-13.1-17.9-19.4-26.8
		c-2.8-3.9-3.7-9-6.2-12.8c-2.5-3.4-4.9-6.7-7.4-10.1c-2.4-5.8-0.4-13.2-1.6-20.6c-1.2-7.2-2.8-14.9-6.2-20.2
		c-0.8-1.2-19.3-18.2-20.2-18.6c-0.6-0.1-1.1-0.3-1.7-0.5c6.9,17.9,10,38.3,9.2,60.7c-0.8,24.5-6.2,51.3-16.1,79.8
		c-14.6,42.5-35.8,79.2-50.9,100.3c-18.4,29.5-42.7,54.9-71.2,74.8c2.9,1,5.7,2,8.6,3c3.9,12-7.7,24.8-10.3,38.7
		c12.6,3,25.6,5,38.9,6c6.1,0.5,12.3,0.7,18.5,0.7s12.4-0.2,18.5-0.7c19.9-1.5,39.2-5.2,57.5-11.1c0.2-0.1,0.5-0.2,0.8-0.2
		c0.7-2,1.3-4,2-6.1c5.3-14.8,13.7-44.9,24.8-53.2c18.2-13.5,67.8,1.6,79.6-18.2c5.9-9.9-4.1-19.3-1.2-30.3c1.9-2.5,3.9-4.9,5.8-7.4
		v-0.8C660.5,633.9,656.8,631.5,656,627.8z M253.7,381.2c0.1,0.2,0.1,0.5,0.2,0.8l0.1-0.2C253.9,381.5,253.8,381.4,253.7,381.2z"/>
	<g>
		<g>
			<linearGradient id="SVGID_3_" gradientUnits="userSpaceOnUse" x1="525.5127" y1="616.9003" x2="298.9475" y2="299.9438">
				<stop  offset="0" style="stop-color:#FEA68B"/>
				<stop  offset="1" style="stop-color:#F76C40"/>
			</linearGradient>
			<path class="st2" d="M470.1,647.2c28.3-32.8,107.2-171.2,57.7-257.8c-58.1-101.6-230-131.4-321.2-290.6c0,0-53.7,205.7-0.6,298.5
				c56.9,104.9,131,121.3,156.1,130.2c-68.3-60.8-106.6-96.6-119.2-174.8c49.5,83.5,89.6,98.5,136.1,135.2c0,0,51.3,30.6,75,72
				C480.4,606.3,470.1,647.2,470.1,647.2z"/>
		</g>
	</g>
	<g>
		<linearGradient id="SVGID_4_" gradientUnits="userSpaceOnUse" x1="375.1502" y1="724.3817" x2="148.5849" y2="407.4252">
			<stop  offset="0" style="stop-color:#FEA68B"/>
			<stop  offset="1" style="stop-color:#F76C40"/>
		</linearGradient>
		<path class="st3" d="M356.4,645.6c-17.3,7.5-85.1,22.6-114.7-9.2c-34.8-37.3-25-112.7-79.6-171.1c0,0,92.5,4.1,124.3,38.2
			c36.3,37.2,33.6,70.1,34.1,81.7c-16.5-36.3-26.5-56.8-57.4-72.1c28.4,31.3,29.5,50,38.7,74c0,0,6.1,25.3,20.3,40.5
			C338.1,644.7,356.4,645.6,356.4,645.6z"/>
	</g>
</g>
</svg>
